<?xml version="1.0" encoding="UTF-8" standalone="no"?>
<!DOCTYPE svg PUBLIC "-//W3C//DTD SVG 1.1//EN"
 "http://www.w3.org/Graphics/SVG/1.1/DTD/svg11.dtd">
<!-- Generated by graphviz version 5.0.0 (20220707.1540)
 -->
<!-- Pages: 1 -->
<svg width="354pt" height="288pt"
 viewBox="0.00 0.00 354.43 288.15" xmlns="http://www.w3.org/2000/svg" xmlns:xlink="http://www.w3.org/1999/xlink">
<g id="graph0" class="graph" transform="scale(1 1) rotate(0) translate(4 284.15)">
<polygon fill="white" stroke="transparent" points="-4,4 -4,-284.15 350.43,-284.15 350.43,4 -4,4"/>
<!-- &#45;1 -->
<g id="node1" class="node">
<title>&#45;1</title>
<polygon fill="lightgray" stroke="black" points="55.85,-280.15 31.85,-280.15 31.85,-262.15 55.85,-262.15 55.85,-280.15"/>
<text text-anchor="middle" x="43.85" y="-268.95" font-family="Times New Roman,serif" font-size="9.00">&#45;1</text>
</g>
<!-- 2 -->
<g id="node7" class="node">
<title>2</title>
<ellipse fill="lightblue" stroke="black" cx="14.85" cy="-201.4" rx="14.7" ry="14.7"/>
<text text-anchor="middle" x="14.85" y="-199.2" font-family="Times New Roman,serif" font-size="9.00">2</text>
</g>
<!-- &#45;1&#45;&gt;2 -->
<g id="edge1" class="edge">
<title>&#45;1&#45;&gt;2</title>
<path fill="none" stroke="green" stroke-width="0.65" d="M40.41,-262.11C36.46,-252.89 29.83,-237.39 24.31,-224.5"/>
<polygon fill="green" stroke="green" stroke-width="0.65" points="27.52,-223.1 20.37,-215.29 21.08,-225.86 27.52,-223.1"/>
</g>
<!-- 5001 -->
<g id="node10" class="node">
<title>5001</title>
<ellipse fill="white" stroke="black" cx="72.85" cy="-201.4" rx="25" ry="25"/>
<text text-anchor="middle" x="72.85" y="-199.2" font-family="Times New Roman,serif" font-size="9.00">5001</text>
</g>
<!-- &#45;1&#45;&gt;5001 -->
<g id="edge4" class="edge">
<title>&#45;1&#45;&gt;5001</title>
<path fill="none" stroke="green" stroke-width="0.3" d="M47.29,-262.11C50.32,-255.03 54.94,-244.23 59.43,-233.76"/>
<polygon fill="green" stroke="green" stroke-width="0.3" points="62.74,-234.91 63.46,-224.34 56.3,-232.16 62.74,-234.91"/>
</g>
<!-- &#45;2 -->
<g id="node2" class="node">
<title>&#45;2</title>
<polygon fill="lightgray" stroke="black" points="166.85,-280.15 142.85,-280.15 142.85,-262.15 166.85,-262.15 166.85,-280.15"/>
<text text-anchor="middle" x="154.85" y="-268.95" font-family="Times New Roman,serif" font-size="9.00">&#45;2</text>
</g>
<!-- 0 -->
<g id="node5" class="node">
<title>0</title>
<ellipse fill="lightblue" stroke="black" cx="130.85" cy="-201.4" rx="14.7" ry="14.7"/>
<text text-anchor="middle" x="130.85" y="-199.2" font-family="Times New Roman,serif" font-size="9.00">0</text>
</g>
<!-- &#45;2&#45;&gt;0 -->
<g id="edge2" class="edge">
<title>&#45;2&#45;&gt;0</title>
<path fill="none" stroke="red" stroke-width="1.47" d="M152,-262.11C148.79,-253.04 143.42,-237.88 138.89,-225.11"/>
<polygon fill="red" stroke="red" stroke-width="1.47" points="142.14,-223.8 135.5,-215.54 135.54,-226.13 142.14,-223.8"/>
</g>
<!-- 1 -->
<g id="node6" class="node">
<title>1</title>
<ellipse fill="lightblue" stroke="black" cx="178.85" cy="-201.4" rx="14.7" ry="14.7"/>
<text text-anchor="middle" x="178.85" y="-199.2" font-family="Times New Roman,serif" font-size="9.00">1</text>
</g>
<!-- &#45;2&#45;&gt;1 -->
<g id="edge5" class="edge">
<title>&#45;2&#45;&gt;1</title>
<path fill="none" stroke="green" stroke-width="0.94" d="M157.7,-262.11C160.91,-253.04 166.28,-237.88 170.8,-225.11"/>
<polygon fill="green" stroke="green" stroke-width="0.94" points="174.15,-226.13 174.2,-215.54 167.56,-223.8 174.15,-226.13"/>
</g>
<!-- &#45;3 -->
<g id="node3" class="node">
<title>&#45;3</title>
<polygon fill="lightgray" stroke="black" points="208.85,-280.15 184.85,-280.15 184.85,-262.15 208.85,-262.15 208.85,-280.15"/>
<text text-anchor="middle" x="196.85" y="-268.95" font-family="Times New Roman,serif" font-size="9.00">&#45;3</text>
</g>
<!-- &#45;4 -->
<g id="node4" class="node">
<title>&#45;4</title>
<polygon fill="lightgray" stroke="black" points="250.85,-280.15 226.85,-280.15 226.85,-262.15 250.85,-262.15 250.85,-280.15"/>
<text text-anchor="middle" x="238.85" y="-268.95" font-family="Times New Roman,serif" font-size="9.00">&#45;4</text>
</g>
<!-- 7901 -->
<g id="node16" class="node">
<title>7901</title>
<ellipse fill="white" stroke="black" cx="175.85" cy="-113.07" rx="25" ry="25"/>
<text text-anchor="middle" x="175.85" y="-110.87" font-family="Times New Roman,serif" font-size="9.00">7901</text>
</g>
<!-- 1&#45;&gt;7901 -->
<g id="edge8" class="edge">
<title>1&#45;&gt;7901</title>
<path fill="none" stroke="green" stroke-width="0.32" d="M178.37,-186.53C178.01,-176.23 177.5,-161.7 177.04,-148.36"/>
<polygon fill="green" stroke="green" stroke-width="0.32" points="180.53,-147.9 176.68,-138.02 173.53,-148.14 180.53,-147.9"/>
</g>
<!-- 10171 -->
<g id="node15" class="node">
<title>10171</title>
<ellipse fill="white" stroke="black" cx="61.85" cy="-113.07" rx="27.65" ry="27.65"/>
<text text-anchor="middle" x="61.85" y="-110.87" font-family="Times New Roman,serif" font-size="9.00">10171</text>
</g>
<!-- 2&#45;&gt;10171 -->
<g id="edge6" class="edge">
<title>2&#45;&gt;10171</title>
<path fill="none" stroke="green" stroke-width="0.47" d="M21.58,-188.03C27.41,-177.32 36.12,-161.34 43.94,-146.97"/>
<polygon fill="green" stroke="green" stroke-width="0.47" points="47.21,-148.28 48.92,-137.83 41.06,-144.94 47.21,-148.28"/>
</g>
<!-- 3 -->
<g id="node8" class="node">
<title>3</title>
<ellipse fill="lightblue" stroke="black" cx="318.85" cy="-201.4" rx="14.7" ry="14.7"/>
<text text-anchor="middle" x="318.85" y="-199.2" font-family="Times New Roman,serif" font-size="9.00">3</text>
</g>
<!-- 12291 -->
<g id="node9" class="node">
<title>12291</title>
<ellipse fill="white" stroke="black" cx="318.85" cy="-113.07" rx="27.65" ry="27.65"/>
<text text-anchor="middle" x="318.85" y="-110.87" font-family="Times New Roman,serif" font-size="9.00">12291</text>
</g>
<!-- 3&#45;&gt;12291 -->
<g id="edge12" class="edge">
<title>3&#45;&gt;12291</title>
<path fill="none" stroke="red" stroke-width="0.47" d="M318.85,-186.53C318.85,-176.92 318.85,-163.65 318.85,-151.09"/>
<polygon fill="red" stroke="red" stroke-width="0.47" points="322.35,-150.8 318.85,-140.8 315.35,-150.8 322.35,-150.8"/>
</g>
<!-- 7703 -->
<g id="node14" class="node">
<title>7703</title>
<ellipse fill="white" stroke="black" cx="281.85" cy="-24.75" rx="25" ry="25"/>
<text text-anchor="middle" x="281.85" y="-22.55" font-family="Times New Roman,serif" font-size="9.00">7703</text>
</g>
<!-- 12291&#45;&gt;7703 -->
<g id="edge13" class="edge">
<title>12291&#45;&gt;7703</title>
<path fill="none" stroke="red" stroke-width="0.73" d="M308.35,-87.57C304.27,-78.05 299.54,-67.03 295.22,-56.96"/>
<polygon fill="red" stroke="red" stroke-width="0.73" points="298.4,-55.48 291.24,-47.66 291.97,-58.24 298.4,-55.48"/>
</g>
<!-- 651 -->
<g id="node11" class="node">
<title>651</title>
<ellipse fill="white" stroke="black" cx="140.85" cy="-24.75" rx="21.43" ry="21.43"/>
<text text-anchor="middle" x="140.85" y="-22.55" font-family="Times New Roman,serif" font-size="9.00">651</text>
</g>
<!-- 11698 -->
<g id="node12" class="node">
<title>11698</title>
<ellipse fill="white" stroke="black" cx="245.85" cy="-113.07" rx="27.65" ry="27.65"/>
<text text-anchor="middle" x="245.85" y="-110.87" font-family="Times New Roman,serif" font-size="9.00">11698</text>
</g>
<!-- 11698&#45;&gt;7703 -->
<g id="edge11" class="edge">
<title>11698&#45;&gt;7703</title>
<path fill="none" stroke="red" stroke-width="0.59" d="M256.26,-87.11C260.12,-77.84 264.56,-67.21 268.64,-57.43"/>
<polygon fill="red" stroke="red" stroke-width="0.59" points="271.95,-58.59 272.56,-48.01 265.48,-55.9 271.95,-58.59"/>
</g>
<!-- 4149 -->
<g id="node13" class="node">
<title>4149</title>
<ellipse fill="white" stroke="black" cx="242.85" cy="-201.4" rx="25" ry="25"/>
<text text-anchor="middle" x="242.85" y="-199.2" font-family="Times New Roman,serif" font-size="9.00">4149</text>
</g>
<!-- 4149&#45;&gt;11698 -->
<g id="edge10" class="edge">
<title>4149&#45;&gt;11698</title>
<path fill="none" stroke="green" stroke-width="0.29" d="M243.68,-176.35C243.96,-168.48 244.27,-159.54 244.57,-150.95"/>
<polygon fill="green" stroke="green" stroke-width="0.29" points="248.07,-150.84 244.92,-140.72 241.08,-150.59 248.07,-150.84"/>
</g>
<!-- 4149&#45;&gt;7901 -->
<g id="edge3" class="edge">
<title>4149&#45;&gt;7901</title>
<path fill="none" stroke="green" stroke-width="0.14" d="M227.98,-181.24C218.87,-169.51 207.07,-154.3 197,-141.33"/>
<polygon fill="green" stroke="green" stroke-width="0.14" points="199.57,-138.93 190.68,-133.18 194.04,-143.23 199.57,-138.93"/>
</g>
<!-- 10171&#45;&gt;651 -->
<g id="edge7" class="edge">
<title>10171&#45;&gt;651</title>
<path fill="none" stroke="red" stroke-width="0.16" d="M80.17,-92.05C92.06,-79.06 107.58,-62.1 119.95,-48.59"/>
<polygon fill="red" stroke="red" stroke-width="0.16" points="122.65,-50.82 126.82,-41.08 117.48,-46.1 122.65,-50.82"/>
</g>
<!-- 7901&#45;&gt;651 -->
<g id="edge9" class="edge">
<title>7901&#45;&gt;651</title>
<path fill="none" stroke="green" stroke-width="0.16" d="M166.84,-89.84C162.41,-78.92 157.02,-65.63 152.3,-53.99"/>
<polygon fill="green" stroke="green" stroke-width="0.16" points="155.53,-52.64 148.53,-44.69 149.04,-55.27 155.53,-52.64"/>
</g>
</g>
</svg>
